:SAMPLES-PER-SECOND 30
:FULLY-SPECIFIED
:DEGREES
400
root  9.33875 38.7164 -21.1578 -176.135 -72.6403 165.601
RightUpLeg  -13.1528 6.6299 -10.4056
RightLeg  57.6759 0.903188 1.10685
RightFoot  1.8532 -0.831452 7.29816
RightToes  -1.33073e-015 0 -3.6325e-017
Spine  10.3139 -1.20872 -7.14637
Spine1  6.22152 -2.61351 -0.95024
HEad  -5.18357 -1.42603 -3.16521
LeftShoulder1  0.458173 2.19375 -28.8433
LeftArm  -3.10124 14.1249 -42.4408
LeftForeArm  19.9435 -15.6303 -5.73629
LeftHand  -0.0445013 3.06312 1.44848
RightShoulder  -0.464603 -4.94249 25.4293
RightArm  21.3356 -4.77095 48.8906
RightForeArm  -3.66745 20.6245 5.19762
RightHand  -1.09118 9.46475 -8.88487
LeftUpLeg  0.813478 4.66888 -10.2138
LeftLeg  16.1921 5.40539 0.0670399
LeftFoot  -7.86177 -0.29579 11.2726
LeftToes  -1.03319e-009 7.52634e-011 -3.26162e-012
401
root  8.33035 38.7639 -21.4196 -176.095 -74.7384 165.195
RightUpLeg  -14.2595 6.79067 -9.92254
RightLeg  50.7866 -0.0987344 -0.494735
RightFoot  -0.29907 -0.723923 7.46308
RightToes  -1.33073e-015 0 -3.6325e-017
Spine  10.37 -1.53426 -7.32737
Spine1  6.35347 -3.0524 -0.240532
HEad  -4.69859 -1.92653 -2.29905
LeftShoulder1  0.432156 2.25927 -28.6038
LeftArm  -0.685322 12.5862 -42.942
LeftForeArm  17.6188 -17.8498 -5.22975
LeftHand  -0.0608739 3.13625 2.33249
RightShoulder  -0.43307 -4.85104 25.2424
RightArm  21.0151 -4.16446 49.0157
RightForeArm  -3.68313 21.4867 5.10168
RightHand  -1.11789 9.40399 -9.12818
LeftUpLeg  3.33705 5.09807 -9.83957
LeftLeg  15.8046 3.1193 -0.298403
LeftFoot  -8.95568 -0.194157 11.8894
LeftToes  -1.03319e-009 7.52634e-011 -3.26162e-012
402
root  7.31384 38.7771 -21.6655 -175.221 -76.6649 164.067
RightUpLeg  -14.6267 6.6673 -9.59656
RightLeg  41.8891 -0.532167 -0.799362
RightFoot  -1.32049 -0.69392 7.79661
RightToes  -1.33073e-015 0 -3.6325e-017
Spine  10.5373 -1.7546 -7.31443
Spine1  6.02976 -3.26507 0.261123
HEad  -3.84309 -3.98558 -1.35722
LeftShoulder1  0.489479 2.08458 -28.3553
LeftArm  1.57221 11.124 -43.2274
LeftForeArm  15.9812 -19.6371 -4.78657
LeftHand  -0.0784411 2.51144 2.70118
RightShoulder  -0.419113 -4.80995 25.1672
RightArm  20.6016 -3.76568 49.0905
RightForeArm  -3.4477 21.5319 5.08338
RightHand  -1.07605 9.66975 -8.65676
LeftUpLeg  5.72909 5.4071 -9.54081
LeftLeg  15.4314 1.13021 -0.60824
LeftFoot  -10.1481 -0.0681821 12.2961
LeftToes  -1.03319e-009 7.52634e-011 -3.26162e-012
403
root  6.26886 38.7454 -21.9056 -172.72 -77.9844 161.489
RightUpLeg  -14.5481 5.35299 -9.59792
RightLeg  31.8546 -0.475417 -0.548903
RightFoot  -1.41263 -0.695521 7.88349
RightToes  -1.33073e-015 0 -3.6325e-017
Spine  10.0101 -1.73284 -7.14329
Spine1  6.42987 -3.0627 0.333772
HEad  -3.52323 -4.02948 -1.38903
LeftShoulder1  0.49054 2.08423 -28.4258
LeftArm  3.1536 8.79438 -43.342
LeftForeArm  14.8893 -20.4659 -4.63916
LeftHand  -0.0795392 2.78621 2.94992
RightShoulder  -0.395254 -4.74 24.9977
RightArm  20.4574 -3.39448 49.2738
RightForeArm  -3.92195 21.0794 5.14036
RightHand  -1.12488 9.53248 -9.10871
LeftUpLeg  7.937 5.53158 -9.58278
LeftLeg  14.9458 -0.23551 -0.828975
LeftFoot  -11.4964 0.0863744 12.1762
LeftToes  -1.03319e-009 7.52634e-011 -3.26162e-012
404
root  5.20436 38.7082 -22.119 -169.296 -79.4558 158.179
RightUpLeg  -13.7115 1.40114 -9.24409
RightLeg  20.9503 0.469141 -0.120042
RightFoot  -1.18689 -0.736322 8.18073
RightToes  -1.33073e-015 0 -3.6325e-017
Spine  9.54779 -1.9111 -6.74897
Spine1  6.5374 -3.06203 0.426395
HEad  -3.15064 -4.9882 -1.37168
LeftShoulder1  0.493675 2.07906 -28.5261
LeftArm  4.3387 7.01876 -43.5245
LeftForeArm  14.0048 -21.2644 -4.48886
LeftHand  -0.0921878 2.48596 3.22387
RightShoulder  -0.330569 -4.54257 24.732
RightArm  20.2069 -3.13396 49.6023
RightForeArm  -3.77548 19.9417 5.28093
RightHand  -1.14855 10.0664 -8.98979
LeftUpLeg  10.0676 5.65799 -9.49046
LeftLeg  14.2741 -1.83973 -1.13196
LeftFoot  -12.5562 0.207943 12.4197
LeftToes  -1.03319e-009 7.52634e-011 -3.26162e-012
405
root  4.11505 38.6655 -22.3267 -164.679 -80.617 153.897
RightUpLeg  -12.5906 -5.01484 -8.29499
RightLeg  10.1158 2.20079 0.256637
RightFoot  -0.978261 -0.797688 8.70978
RightToes  -1.33073e-015 0 -3.6325e-017
Spine  8.50362 -2.04302 -6.01754
Spine1  7.15349 -2.86989 0.0460644
HEad  -2.65623 -7.05862 -0.786526
LeftShoulder1  0.509894 2.01505 -28.1084
LeftArm  4.11161 5.41952 -44.249
LeftForeArm  14.1604 -21.2049 -4.49727
LeftHand  -0.0767731 2.90158 2.95853
RightShoulder  -0.379284 -4.68514 25.1219
RightArm  20.7004 -2.78052 49.3945
RightForeArm  -3.61535 18.8701 5.54689
RightHand  -1.15125 9.60637 -9.26634
LeftUpLeg  12.1496 5.58555 -9.56818
LeftLeg  13.2501 -3.0529 -1.2296
LeftFoot  -13.4663 0.312907 12.4502
LeftToes  -1.03319e-009 7.52634e-011 -3.26162e-012
406
root  2.97807 38.5876 -22.5543 -161.601 -81.4279 151.264
RightUpLeg  -11.4767 -9.70209 -7.13612
RightLeg  0.949195 0.214208 1.15325
RightFoot  -0.734683 -0.830827 8.87449
RightToes  -1.33073e-015 0 -3.6325e-017
Spine  7.54282 -1.94701 -5.22221
Spine1  7.37598 -2.64208 0.338399
HEad  -2.30929 -8.84088 -0.872633
LeftShoulder1  0.517726 2.01066 -28.5589
LeftArm  4.48057 3.97506 -44.462
LeftForeArm  14.2276 -20.3346 -4.77341
LeftHand  -0.0809138 3.21844 3.5271
RightShoulder  -0.355158 -4.61368 24.9559
RightArm  20.2468 -3.00063 49.2761
RightForeArm  -2.28358 17.4946 5.87516
RightHand  -1.10474 9.44761 -8.99662
LeftUpLeg  14.1192 5.68581 -9.28128
LeftLeg  12.4339 -3.87527 -1.24347
LeftFoot  -14.6097 0.442742 12.3574
LeftToes  -1.03319e-009 7.52634e-011 -3.26162e-012
407
root  1.76455 38.4009 -22.8149 -159.182 -81.7957 149.034
RightUpLeg  -10.4809 -9.27802 -6.78086
RightLeg  -4.46908 -7.58424 2.5072
RightFoot  -0.703848 -0.944495 9.92554
RightToes  -1.33073e-015 0 -3.6325e-017
Spine  6.75186 -1.82403 -4.52886
Spine1  7.73003 -2.35395 0.192196
HEad  -2.39777 -9.57557 -0.706844
LeftShoulder1  0.462747 2.17981 -28.8236
LeftArm  4.8188 2.89803 -44.5827
LeftForeArm  14.499 -19.4774 -5.12606
LeftHand  -0.0782241 3.25254 3.429
RightShoulder  -0.333484 -4.54916 24.7899
RightArm  19.4207 -3.10826 49.3439
RightForeArm  -0.59882 15.9394 6.30239
RightHand  -1.03033 9.04672 -8.64069
LeftUpLeg  15.9869 5.68545 -9.20984
LeftLeg  12.577 -4.15516 -1.01204
LeftFoot  -16.2044 0.621454 12.3052
LeftToes  -1.03319e-009 7.52634e-011 -3.26162e-012
408
root  0.572851 38.2689 -23.1034 -157.66 -82.246 147.999
RightUpLeg  -10.9531 -8.97347 -5.90776
RightLeg  -4.24823 -13.1938 3.11839
RightFoot  0.880624 -0.514091 5.43938
RightToes  -1.33073e-015 0 -3.6325e-017
Spine  5.96885 -1.85757 -3.86092
Spine1  8.17644 -2.36353 0.370608
HEad  -2.74888 -10.4925 -0.346726
LeftShoulder1  0.455068 2.19076 -28.5322
LeftArm  4.51025 2.67783 -44.8957
LeftForeArm  15.1412 -18.3673 -5.60371
LeftHand  -0.0946788 2.66402 3.52836
RightShoulder  -0.377037 -4.66103 25.5698
RightArm  18.5023 -2.86739 48.8532
RightForeArm  1.04997 14.2396 6.78279
RightHand  -1.04297 8.76313 -8.90185
LeftUpLeg  17.4798 5.45808 -8.95526
LeftLeg  12.6902 -4.27116 -0.702466
LeftFoot  -17.3437 0.715378 11.5844
LeftToes  -1.03319e-009 7.52634e-011 -3.26162e-012
409
root  -0.60382 38.2648 -23.3255 -160.415 -82.5273 151.097
RightUpLeg  -12.3668 -9.2811 -4.8502
RightLeg  -0.178418 -13.341 2.88219
RightFoot  7.55062 0.518475 -2.99061
RightToes  -1.33073e-015 0 -3.6325e-017
Spine  5.58155 -1.93832 -2.71115
Spine1  8.9304 -2.67576 1.5226
HEad  -3.49164 -10.7506 -0.584315
LeftShoulder1  0.44933 2.22421 -28.9904
LeftArm  3.72236 3.05818 -44.6783
LeftForeArm  16.2317 -17.1997 -6.11018
LeftHand  -0.0890153 2.61743 3.18942
RightShoulder  -0.328043 -4.52464 25.0326
RightArm  16.2648 -2.90156 49.3616
RightForeArm  3.2474 12.3572 7.06542
RightHand  -1.01578 8.67302 -8.73465
LeftUpLeg  19.3486 4.91508 -8.45809
LeftLeg  12.124 -3.88512 -0.38578
LeftFoot  -17.2966 0.644347 10.3677
LeftToes  -1.03319e-009 7.52634e-011 -3.26162e-012
410
root  -1.92281 38.1688 -23.553 -169.552 -82.7753 160.314
RightUpLeg  -13.9044 -9.89219 -3.73482
RightLeg  5.48761 -10.2807 2.10182
RightFoot  12.547 0.936303 -4.07293
RightToes  -1.33073e-015 0 -3.6325e-017
Spine  5.37523 -2.26815 -0.163556
Spine1  9.18197 -2.82083 1.22684
HEad  -4.5389 -11.6189 -0.144952
LeftShoulder1  0.473787 2.17261 -29.4846
LeftArm  2.77675 3.71607 -44.1839
LeftForeArm  18.0007 -15.5616 -6.85941
LeftHand  -0.0641967 3.18881 2.5891
RightShoulder  -0.400218 -4.73236 25.6153
RightArm  15.4766 -2.92532 48.6598
RightForeArm  3.39526 11.2669 7.24969
RightHand  -1.00032 8.9382 -8.45562
LeftUpLeg  20.8951 4.471 -7.01149
LeftLeg  13.5563 -4.0131 -0.458901
LeftFoot  -17.9922 0.583985 8.20992
LeftToes  -1.03319e-009 7.52634e-011 -3.26162e-012
411
root  -3.25922 38.1158 -23.7319 172.295 -81.8528 179.059
RightUpLeg  -15.8661 -12.2935 -0.608838
RightLeg  12.3114 -6.41271 1.36153
RightFoot  9.71645 1.08003 -5.4319
RightToes  -1.33073e-015 0 -3.6325e-017
Spine  4.90375 -2.44993 4.70037
Spine1  9.05534 -2.44777 -0.23211
HEad  -5.37225 -12.7944 -0.16759
LeftShoulder1  0.462405 2.22151 -29.948
LeftArm  -0.199282 4.28182 -44.191
LeftForeArm  21.7867 -12.1676 -8.02487
LeftHand  -0.0700618 3.09811 2.81163
RightShoulder  -0.458238 -4.89676 26.0334
RightArm  14.3525 -3.19652 47.8572
RightForeArm  3.79279 10.5501 7.14645
RightHand  -0.932377 8.5122 -8.13985
LeftUpLeg  21.0137 4.37347 -4.35633
LeftLeg  16.9737 -3.94428 -0.924375
LeftFoot  -18.3271 0.411217 4.9476
LeftToes  -1.03319e-009 7.52634e-011 -3.26162e-012
412
root  -4.54688 38.1588 -23.9591 161.813 -80.1982 -169.488
RightUpLeg  -16.6209 -13.3923 2.44356
RightLeg  15.579 -3.67417 0.49586
RightFoot  7.9349 1.09177 -6.10993
RightToes  -1.33073e-015 0 -3.6325e-017
Spine  4.46541 -2.63069 7.40559
Spine1  8.26636 -2.50923 0.112888
HEad  -5.21821 -13.7004 -0.155048
LeftShoulder1  0.420518 2.32892 -29.6988
LeftArm  -3.89401 6.56183 -45.1929
LeftForeArm  25.4876 -9.18286 -8.21326
LeftHand  -0.051852 3.51618 2.08187
RightShoulder  -0.424796 -4.79294 25.9702
RightArm  14.2543 -3.5371 47.3171
RightForeArm  3.62035 9.6548 7.34825
RightHand  -0.965345 8.20253 -8.58633
LeftUpLeg  19.5669 5.75285 -1.19764
LeftLeg  22.2444 -5.81926 -2.3311
LeftFoot  -16.6391 0.15949 1.15892
LeftToes  -1.03319e-009 7.52634e-011 -3.26162e-012
